{"title":"The Croods 2013 Cam XviD Feel-Free","uid":8306358,"size":954921362,"categoryP":"video","categoryS":"movies","magnet":"?xt=urn:btih:bc4ada6d876ae9d5513c58b89674610388440314&amp;dn=The+Croods+2013+Cam+XviD+Feel-Free&amp;tr=udp%3A%2F%2Ftracker.openbittorrent.com%3A80&amp;tr=udp%3A%2F%2Fopen.demonii.com%3A1337&amp;tr=udp%3A%2F%2Ftracker.coppersurfer.tk%3A6969&amp;tr=udp%3A%2F%2Fexodus.desync.com%3A6969","seeders":1,"leechers":0,"uploader":"Gh0stNet","files":5,"time":1364384733,"description":"Format                                   : AVI\nFormat/Info                              : Audio Video Interleave\nFile size                                : 910 MiB\nDuration                                 : 1h 29mn\nOverall bit rate                         : 1 422 Kbps\n\nVideo\nID                                       : 0\nFormat                                   : MPEG-4 Visual\nFormat profile                           : Advanced Simple@L5\nFormat settings, BVOP                    : 1\nFormat settings, QPel                    : No\nFormat settings, GMC                     : No warppoints\nFormat settings, Matrix                  : Default (H.263)\nCodec ID                                 : XVID\nCodec ID/Hint                            : XviD\nDuration                                 : 1h 29mn\nBit rate                                 : 1 252 Kbps\nWidth                                    : 640 pixels\nHeight                                   : 240 pixels\nDisplay aspect ratio                     : 2.667\nFrame rate                               : 25.000 fps\nColor space                              : YUV\nChroma subsampling                       : 4:2:0\nBit depth                                : 8 bits\nScan type                                : Progressive\nCompression mode                         : Lossy\nBits/(Pixel*Frame)                       : 0.326\nStream size                              : 801 MiB (88%)\nWriting library                          : XviD 1.2.1 (UTC 2008-12-04)\n\nAudio\nID                                       : 1\nFormat                                   : AC-3\nFormat/Info                              : Audio Coding 3\nMode extension                           : CM (complete main)\nCodec ID                                 : 2000\nDuration                                 : 1h 29mn\nBit rate mode                            : Constant\nBit rate                                 : 160 Kbps\nChannel(s)                               : 2 channels\nChannel positions                        : Front: L R\nSampling rate                            : 48.0 KHz\nBit depth                                : 16 bits\nCompression mode                         : Lossy\nStream size                              : 102 MiB (11%)\nAlignment                                : Aligned on interleaves\nInterleave, duration                     : 40 ms (1.00 video frame)\nInterleave, preload duration             : 512 ms\n\nScreens: &lt;a href=&quot;\nhttp://i.imgur.com/4J8Alh3.png&quot; rel=&quot;nofollow&quot; target=&quot;_NEW&quot;&gt;\nhttp://i.imgur.com/4J8Alh3.png&lt;/a&gt; &lt;a href=&quot;\nhttp://i.imgur.com/GyrVePR.png&quot; rel=&quot;nofollow&quot; target=&quot;_NEW&quot;&gt;\nhttp://i.imgur.com/GyrVePR.png&lt;/a&gt; &lt;a href=&quot;\nhttp://i.imgur.com/QW2n9Kr.png&quot; rel=&quot;nofollow&quot; target=&quot;_NEW&quot;&gt;\nhttp://i.imgur.com/QW2n9Kr.png&lt;/a&gt;","torrent":{"xt":"urn:btih:bc4ada6d876ae9d5513c58b89674610388440314","amp;dn":"The+Croods+2013+Cam+XviD+Feel-Free","amp;tr":["udp%3A%2F%2Ftracker.openbittorrent.com%3A80","udp%3A%2F%2Fopen.demonii.com%3A1337","udp%3A%2F%2Ftracker.coppersurfer.tk%3A6969","udp%3A%2F%2Fexodus.desync.com%3A6969"],"infoHash":"bc4ada6d876ae9d5513c58b89674610388440314","infoHashBuffer":{"type":"Buffer","data":[188,74,218,109,135,106,233,213,81,60,88,184,150,116,97,3,136,68,3,20]},"announce":[],"urlList":[]}}